<svg xmlns="http://www.w3.org/2000/svg" xmlns:xlink="http://www.w3.org/1999/xlink" width="1000" zoomAndPan="magnify" viewBox="0 0 750 749.999995" height="1000" preserveAspectRatio="xMidYMid meet" version="1.0"><path fill="#c4d4e0" d="M 375.019531 750.058594 L 658.929688 750.058594 C 652.257812 569.472656 691.519531 477.644531 475.121094 445.621094 C 473.320312 445.351562 452.359375 442.191406 375.015625 441.621094 C 297.671875 442.191406 276.710938 445.351562 274.910156 445.621094 C 58.511719 477.644531 97.769531 569.46875 91.097656 750.058594 Z M 375.019531 750.058594 " fill-opacity="1" fill-rule="nonzero"/><path fill="#27475d" d="M 256.320312 448.636719 L 256.3125 448.636719 L 254.382812 448.980469 C 229.058594 453.542969 207.6875 459.078125 189.636719 465.644531 C 197.6875 526.195312 194.15625 660.835938 174.792969 750.050781 L 341.972656 750.050781 C 262.929688 658.757812 256.332031 448.921875 256.316406 448.632812 Z M 256.320312 448.636719 " fill-opacity="1" fill-rule="nonzero"/><path fill="#283445" d="M 180.046875 722.550781 C 178.445312 732.078125 176.699219 741.289062 174.796875 750.050781 L 341.976562 750.050781 C 334.816406 741.78125 328.257812 732.523438 322.234375 722.550781 Z M 180.046875 722.550781 " fill-opacity="1" fill-rule="evenodd"/><path fill="#27475d" d="M 408.0625 750.058594 L 575.246094 750.058594 C 555.878906 660.835938 552.355469 526.195312 560.402344 465.648438 C 542.324219 459.070312 520.90625 453.527344 495.527344 448.960938 L 493.730469 448.640625 L 493.722656 448.640625 C 493.710938 448.929688 487.113281 658.765625 408.0625 750.0625 Z M 408.0625 750.058594 " fill-opacity="1" fill-rule="nonzero"/><path fill="#283445" d="M 408.0625 750.058594 L 575.246094 750.058594 C 573.339844 741.289062 571.59375 732.082031 569.996094 722.554688 L 427.808594 722.554688 C 421.785156 732.527344 415.226562 741.785156 408.0625 750.058594 Z M 408.0625 750.058594 " fill-opacity="1" fill-rule="evenodd"/><path fill="#edac91" d="M 318.003906 383.214844 L 432.027344 383.214844 L 432.027344 462.6875 C 432.027344 529.128906 318.003906 529.121094 318.003906 462.671875 L 318.003906 383.210938 Z M 318.003906 383.214844 " fill-opacity="1" fill-rule="evenodd"/><path fill="#ec977b" d="M 318.003906 383.214844 L 432.027344 383.214844 L 432.027344 437.945312 C 366.53125 428.78125 333.851562 410.699219 318.003906 397.273438 Z M 318.003906 383.214844 " fill-opacity="1" fill-rule="evenodd"/><path fill="#edac91" d="M 272.695312 303.871094 L 265.171875 246.25 C 219.917969 214.140625 241.207031 317.742188 272.695312 303.871094 Z M 272.695312 303.871094 " fill-opacity="1" fill-rule="nonzero"/><path fill="#edac91" d="M 484.871094 246.25 L 477.347656 303.871094 C 508.839844 317.742188 530.101562 214.136719 484.871094 246.25 Z M 484.871094 246.25 " fill-opacity="1" fill-rule="nonzero"/><path fill="#edb9a1" d="M 376.871094 78.285156 L 376.871094 78.269531 L 376.832031 78.285156 L 376.785156 78.269531 L 376.785156 78.285156 C 307.914062 80.230469 255.351562 108.519531 255.605469 206.105469 C 255.75 263.96875 261.027344 281.039062 277.886719 347.050781 C 301.722656 440.4375 451.925781 440.433594 475.765625 347.050781 C 492.625 281.035156 497.902344 263.96875 498.046875 206.105469 C 498.300781 108.515625 445.734375 80.230469 376.867188 78.285156 Z M 376.871094 78.285156 " fill-opacity="1" fill-rule="nonzero"/><path fill="#3d1d12" d="M 266.878906 254.699219 L 272.960938 327.820312 C 240.996094 241.804688 259.472656 129.289062 259.472656 129.289062 C 278.808594 50.402344 307.746094 43.253906 331.402344 46.296875 C 348.738281 48.523438 361.652344 76.503906 369.070312 45.195312 C 374.933594 20.433594 415.738281 40.820312 443.898438 61.746094 C 527.617188 123.957031 506.691406 234.46875 478.734375 335.457031 L 485.976562 240.757812 C 485.976562 62.929688 365.042969 201.667969 320.171875 197.546875 C 306.300781 196.277344 330.441406 155.496094 319.554688 153.179688 C 281.96875 145.183594 262.804688 145.335938 266.878906 253 L 266.878906 254.703125 Z M 266.878906 254.699219 " fill-opacity="1" fill-rule="nonzero"/><path fill="#c0333d" d="M 397.035156 490.460938 L 452.644531 465.492188 C 454.898438 464.480469 457.226562 464.796875 459.214844 466.394531 C 461.207031 467.984375 462.300781 470.40625 462.300781 473.21875 L 462.300781 551.265625 C 462.300781 554.007812 461.269531 556.363281 459.359375 557.972656 C 457.453125 559.578125 455.207031 559.988281 452.972656 559.125 L 394.023438 536.488281 C 390.757812 535.238281 388.765625 531.550781 389.203125 527.582031 L 392.546875 497.136719 C 392.886719 494.039062 394.535156 491.585938 397.035156 490.464844 Z M 397.035156 490.460938 " fill-opacity="1" fill-rule="evenodd"/><path fill="#c0333d" d="M 357.496094 497.136719 L 360.835938 527.582031 C 361.273438 531.550781 359.277344 535.234375 356.015625 536.488281 L 297.070312 559.125 C 294.835938 559.988281 292.589844 559.578125 290.683594 557.972656 C 288.777344 556.363281 287.746094 554.007812 287.746094 551.265625 L 287.746094 473.21875 C 287.746094 470.40625 288.835938 467.984375 290.832031 466.394531 C 292.820312 464.800781 295.152344 464.484375 297.402344 465.492188 L 353.003906 490.460938 C 355.507812 491.582031 357.15625 494.035156 357.496094 497.132812 Z M 357.496094 497.136719 " fill-opacity="1" fill-rule="evenodd"/><path fill="#942d33" d="M 337.714844 538.59375 L 337.714844 488.300781 C 337.714844 483.742188 340.902344 480.023438 344.820312 480.023438 L 405.222656 480.023438 C 409.132812 480.023438 412.328125 483.742188 412.328125 488.300781 L 412.328125 538.59375 C 412.328125 543.148438 409.132812 546.867188 405.222656 546.867188 L 344.820312 546.867188 C 340.90625 546.867188 337.714844 543.148438 337.714844 538.59375 Z M 337.714844 538.59375 " fill-opacity="1" fill-rule="evenodd"/><path fill="#243a4b" d="M 375.019531 583.03125 C 383.785156 583.03125 390.886719 590.136719 390.886719 598.898438 C 390.886719 607.664062 383.78125 614.765625 375.019531 614.765625 C 366.253906 614.765625 359.152344 607.660156 359.152344 598.898438 C 359.152344 590.132812 366.257812 583.03125 375.019531 583.03125 Z M 375.019531 682.15625 C 383.785156 682.15625 390.886719 689.261719 390.886719 698.023438 C 390.886719 706.789062 383.78125 713.890625 375.019531 713.890625 C 366.253906 713.890625 359.152344 706.785156 359.152344 698.023438 C 359.152344 689.257812 366.257812 682.15625 375.019531 682.15625 Z M 375.019531 632.59375 C 383.785156 632.59375 390.886719 639.699219 390.886719 648.460938 C 390.886719 657.226562 383.78125 664.328125 375.019531 664.328125 C 366.253906 664.328125 359.152344 657.222656 359.152344 648.460938 C 359.152344 639.695312 366.257812 632.59375 375.019531 632.59375 Z M 375.019531 632.59375 " fill-opacity="1" fill-rule="nonzero"/><path fill="#c4d4e0" d="M 253.535156 618.882812 L 215.285156 618.882812 C 211.433594 618.882812 208.289062 615.738281 208.289062 611.886719 L 208.289062 593.308594 C 208.289062 590.828125 209.46875 588.695312 211.570312 587.378906 C 213.675781 586.058594 216.109375 585.929688 218.335938 587.011719 L 256.585938 605.589844 C 259.550781 607.03125 261.082031 610.238281 260.34375 613.453125 C 259.605469 616.667969 256.828125 618.878906 253.53125 618.878906 Z M 253.535156 618.882812 " fill-opacity="1" fill-rule="nonzero"/><path fill="#283445" d="M 254.511719 448.960938 L 256.308594 448.640625 L 256.316406 448.640625 C 256.328125 448.902344 261.789062 622.414062 322.210938 722.527344 L 322.214844 722.554688 C 322.214844 722.554688 219.117188 679.796875 240.976562 631.710938 C 262.832031 583.625 235.875 553.753906 235.875 553.753906 C 213.371094 508.15625 254.511719 448.964844 254.511719 448.964844 Z M 254.511719 448.960938 " fill-opacity="1" fill-rule="evenodd"/><path fill="#c4d4e0" d="M 495.53125 618.882812 L 533.777344 618.882812 C 537.632812 618.882812 540.773438 615.738281 540.773438 611.886719 L 540.773438 593.308594 C 540.773438 590.828125 539.59375 588.695312 537.492188 587.378906 C 535.390625 586.058594 532.957031 585.929688 530.726562 587.011719 L 492.480469 605.589844 C 489.511719 607.03125 487.980469 610.238281 488.71875 613.453125 C 489.457031 616.667969 492.238281 618.878906 495.535156 618.878906 Z M 495.53125 618.882812 " fill-opacity="1" fill-rule="nonzero"/><path fill="#283445" d="M 495.527344 448.960938 L 493.730469 448.640625 L 493.722656 448.640625 C 493.710938 448.902344 488.25 622.414062 427.828125 722.527344 L 427.824219 722.554688 C 427.824219 722.554688 530.921875 679.796875 509.0625 631.710938 C 487.203125 583.625 514.160156 553.753906 514.160156 553.753906 C 536.664062 508.15625 495.527344 448.964844 495.527344 448.964844 Z M 495.527344 448.960938 " fill-opacity="1" fill-rule="evenodd"/></svg>