<svg xmlns="http://www.w3.org/2000/svg" xmlns:xlink="http://www.w3.org/1999/xlink" width="1000" zoomAndPan="magnify" viewBox="0 0 750 749.999995" height="1000" preserveAspectRatio="xMidYMid meet" version="1.0"><defs><clipPath id="82ae1ded34"><path d="M 58.648438 103.726562 L 556 103.726562 L 556 640 L 58.648438 640 Z M 58.648438 103.726562 " clip-rule="nonzero"/></clipPath><clipPath id="14e6777f61"><path d="M 373 254 L 691.648438 254 L 691.648438 456 L 373 456 Z M 373 254 " clip-rule="nonzero"/></clipPath></defs><g clip-path="url(#82ae1ded34)"><path fill="#0c2d49" d="M 505.816406 475.234375 C 475.324219 509.792969 433.101562 533.757812 385.429688 540.882812 C 375.742188 542.34375 365.816406 543.09375 355.722656 543.09375 C 346.152344 543.09375 336.753906 542.414062 327.542969 541.121094 C 230.5 527.394531 155.640625 443.886719 155.640625 343.234375 C 155.640625 242.546875 230.5 159.039062 327.542969 145.332031 C 336.753906 144.019531 346.152344 143.339844 355.722656 143.339844 C 365.816406 143.339844 375.726562 144.089844 385.429688 145.550781 C 394.417969 146.894531 403.238281 148.832031 411.820312 151.351562 C 411.902344 151.367188 412.007812 151.402344 412.074219 151.417969 C 429.339844 156.488281 445.664062 163.835938 460.664062 173.105469 C 474.183594 181.453125 486.609375 191.335938 497.730469 202.5625 L 497.730469 150.550781 C 465.5 126.792969 427.109375 110.871094 385.429688 105.703125 C 375.691406 104.496094 365.765625 103.863281 355.722656 103.863281 C 346.203125 103.863281 336.789062 104.425781 327.542969 105.515625 C 208.640625 119.476562 116.105469 220.761719 116.105469 343.234375 C 116.105469 397.300781 134.171875 447.21875 164.542969 487.324219 L 76.199219 557.484375 C 64.621094 566.683594 58.714844 580.152344 58.714844 593.710938 C 58.714844 605.480469 63.175781 617.300781 72.265625 626.382812 C 91.8125 645.90625 124.023438 644.085938 141.21875 622.453125 L 211.449219 534.199219 C 244.546875 559.199219 284.300781 575.851562 327.542969 580.9375 C 336.789062 582.023438 346.1875 582.585938 355.722656 582.585938 C 365.765625 582.585938 375.691406 581.957031 385.429688 580.75 C 411.121094 577.585938 435.550781 570.304688 458.078125 559.625 C 466.996094 555.40625 475.628906 550.644531 483.921875 545.371094 C 512.285156 527.34375 536.632812 503.535156 555.238281 475.605469 C 544.089844 476.679688 532.390625 476.933594 532.238281 476.933594 C 532.085938 476.917969 517.851562 476.59375 505.816406 475.234375 Z M 505.816406 475.234375 " fill-opacity="1" fill-rule="nonzero"/></g><g clip-path="url(#14e6777f61)"><path fill="#267bbf" d="M 689.875 351.449219 C 669.035156 317.707031 642.050781 290.933594 607.21875 273.246094 C 603.21875 271.1875 593.207031 266.785156 592.304688 266.410156 C 588.644531 264.914062 584.964844 263.585938 581.273438 262.378906 C 569.386719 258.550781 557.265625 256.238281 544.921875 255.355469 C 541.6875 255.117188 538.453125 254.996094 535.203125 254.945312 C 534.214844 254.929688 533.226562 254.929688 532.253906 254.929688 C 528 254.914062 523.777344 255.03125 519.589844 255.335938 C 503.398438 256.492188 487.566406 260.117188 472.207031 266.390625 C 471.289062 266.785156 461.292969 271.1875 457.277344 273.230469 C 422.441406 290.917969 395.476562 317.671875 374.617188 351.433594 C 372.917969 354.152344 372.746094 356.144531 374.484375 359.015625 C 387.117188 380.003906 402.878906 398.066406 421.457031 413.5625 C 421.726562 413.800781 429.949219 420.398438 433.984375 423.324219 C 454.144531 438.003906 476.601562 447.679688 500.792969 452.953125 C 505.882812 454.039062 514.449219 454.753906 521.375 455.164062 C 527.011719 455.484375 531.558594 455.640625 532.238281 455.640625 C 533.738281 455.640625 554.472656 454.960938 563.667969 452.96875 C 565.539062 452.5625 567.414062 452.117188 569.269531 451.660156 C 591.316406 446.164062 611.882812 436.878906 630.476562 423.339844 C 634.507812 420.417969 642.714844 413.816406 642.988281 413.578125 C 661.5625 398.085938 677.328125 380.023438 689.960938 359.035156 C 691.730469 356.144531 691.5625 354.171875 689.875 351.449219 Z M 593.597656 372.011719 C 587.007812 396.144531 566.460938 414.617188 541.195312 418.171875 C 538.28125 418.578125 535.285156 418.800781 532.257812 418.800781 C 497.183594 418.800781 468.648438 390.296875 468.648438 355.277344 C 468.648438 320.238281 497.183594 291.75 532.257812 291.75 C 538.300781 291.75 544.171875 292.601562 549.722656 294.183594 C 573.746094 301.054688 591.996094 321.703125 595.300781 346.992188 C 595.179688 355.429688 594.601562 363.796875 593.597656 372.011719 Z M 593.597656 372.011719 " fill-opacity="1" fill-rule="nonzero"/></g><path fill="#0c2d49" d="M 554.371094 319.304688 C 547.9375 315.339844 540.359375 313.046875 532.257812 313.046875 C 530.621094 313.046875 529.003906 313.148438 527.402344 313.335938 C 534.078125 316.90625 538.605469 323.914062 538.605469 331.992188 C 538.605469 343.675781 529.125 353.167969 517.410156 353.167969 C 506.089844 353.167969 496.84375 344.304688 496.246094 333.148438 C 492.261719 339.59375 489.964844 347.179688 489.964844 355.292969 C 489.964844 378.578125 508.949219 397.523438 532.253906 397.523438 C 538.300781 397.523438 544.054688 396.246094 549.265625 393.953125 C 564.144531 387.402344 574.53125 372.539062 574.53125 355.292969 C 574.53125 340.085938 566.460938 326.738281 554.371094 319.304688 Z M 554.371094 319.304688 " fill-opacity="1" fill-rule="nonzero"/><path fill="#267bbf" d="M 524.269531 233.769531 C 526.484375 235.457031 529.257812 236.457031 532.257812 236.457031 C 535.253906 236.457031 538.027344 235.457031 540.242188 233.769531 C 543.40625 231.355469 545.46875 227.546875 545.46875 223.261719 L 545.46875 150.652344 C 545.46875 143.355469 539.558594 137.4375 532.257812 137.4375 C 524.953125 137.4375 519.027344 143.355469 519.027344 150.652344 L 519.027344 223.277344 C 519.027344 227.546875 521.085938 231.355469 524.269531 233.769531 Z M 524.269531 233.769531 " fill-opacity="1" fill-rule="nonzero"/><path fill="#267bbf" d="M 620.515625 245.066406 L 671.914062 193.71875 C 677.074219 188.5625 677.074219 180.214844 671.914062 175.042969 C 666.738281 169.890625 658.378906 169.890625 653.21875 175.042969 L 601.820312 226.390625 C 596.664062 231.542969 596.664062 239.910156 601.820312 245.066406 C 606.996094 250.21875 615.375 250.21875 620.515625 245.066406 Z M 620.515625 245.066406 " fill-opacity="1" fill-rule="nonzero"/><path fill="#267bbf" d="M 392.597656 175.042969 C 387.421875 180.214844 387.421875 188.5625 392.597656 193.71875 L 443.980469 245.066406 C 449.15625 250.234375 457.515625 250.234375 462.671875 245.066406 C 467.847656 239.910156 467.847656 231.542969 462.671875 226.390625 L 411.292969 175.042969 C 406.117188 169.890625 397.757812 169.890625 392.597656 175.042969 Z M 392.597656 175.042969 " fill-opacity="1" fill-rule="nonzero"/></svg>