<svg xmlns="http://www.w3.org/2000/svg" xmlns:xlink="http://www.w3.org/1999/xlink" width="1000" zoomAndPan="magnify" viewBox="0 0 750 749.999995" height="1000" preserveAspectRatio="xMidYMid meet" version="1.0"><defs><clipPath id="42e85c2027"><path d="M 78 45.570312 L 692 45.570312 L 692 749.820312 L 78 749.820312 Z M 78 45.570312 " clip-rule="nonzero"/></clipPath></defs><path fill="#ffccc8" d="M 237.050781 356.296875 C 255.945312 356.296875 271.265625 340.992188 271.265625 322.113281 C 271.265625 303.234375 255.945312 287.925781 237.050781 287.925781 C 218.15625 287.925781 202.835938 303.234375 202.835938 322.113281 C 202.835938 340.992188 218.15625 356.296875 237.050781 356.296875 Z M 237.050781 356.296875 " fill-opacity="1" fill-rule="nonzero"/><path fill="#ffccc8" d="M 532.972656 356.296875 C 551.867188 356.296875 567.1875 340.992188 567.1875 322.113281 C 567.1875 303.234375 551.867188 287.925781 532.972656 287.925781 C 514.074219 287.925781 498.757812 303.234375 498.757812 322.113281 C 498.757812 340.992188 514.074219 356.296875 532.972656 356.296875 Z M 532.972656 356.296875 " fill-opacity="1" fill-rule="nonzero"/><path fill="#f6f0e0" d="M 676.523438 672.820312 C 679.28125 692.023438 666.363281 709.816406 647.292969 713.464844 C 578.851562 726.566406 486.65625 734.632812 385.121094 734.632812 C 283.582031 734.632812 191.386719 726.566406 122.945312 713.464844 C 103.875 709.816406 90.945312 692.128906 93.699219 672.925781 C 97.707031 645.027344 103.523438 604.503906 108.269531 571.449219 C 112.953125 538.832031 140.90625 514.675781 173.886719 514.675781 L 288.738281 514.675781 C 310.027344 514.675781 327.289062 497.429688 327.289062 476.152344 L 327.289062 408.6875 L 442.949219 408.6875 L 442.949219 476.152344 C 442.949219 497.429688 460.207031 514.675781 481.503906 514.675781 L 596.355469 514.675781 C 629.332031 514.675781 657.296875 538.898438 661.976562 571.515625 Z M 676.523438 672.820312 " fill-opacity="1" fill-rule="nonzero"/><path fill="#f7ada2" d="M 493.929688 514.648438 L 385.121094 649.324219 L 276.3125 514.648438 L 288.75 514.648438 C 310.035156 514.648438 327.269531 497.429688 327.269531 476.164062 L 327.269531 408.625 L 442.972656 408.625 L 442.972656 476.164062 C 442.972656 497.429688 460.207031 514.648438 481.488281 514.648438 Z M 493.929688 514.648438 " fill-opacity="1" fill-rule="nonzero"/><path fill="#ffccc8" d="M 385.121094 463.933594 C 324.304688 463.933594 271.769531 421.449219 259.097656 362.019531 L 250 319.367188 C 232.917969 239.257812 294.050781 163.789062 376.023438 163.789062 L 394.214844 163.789062 C 476.1875 163.789062 537.320312 239.257812 520.238281 319.367188 L 511.140625 362.019531 C 498.46875 421.449219 445.933594 463.933594 385.121094 463.933594 Z M 385.121094 463.933594 " fill-opacity="1" fill-rule="nonzero"/><path fill="#966338" d="M 523.003906 375.980469 C 523.003906 457.59375 463.503906 525.730469 385.121094 538.308594 C 306.738281 525.730469 247.085938 457.746094 247.085938 375.980469 C 247.085938 361.003906 249.035156 346.480469 252.78125 332.703125 L 259.078125 362.054688 C 271.816406 421.503906 324.273438 463.882812 385.121094 463.882812 C 445.96875 463.882812 498.425781 421.503906 511.164062 362.054688 L 517.308594 333.152344 C 521.054688 346.777344 523.003906 361.15625 523.003906 375.980469 Z M 523.003906 375.980469 " fill-opacity="1" fill-rule="nonzero"/><path fill="#d1a56b" d="M 639.003906 240.007812 C 639.003906 266.511719 525.25 287.925781 385.121094 287.925781 C 244.839844 287.925781 131.085938 266.511719 131.085938 240.007812 C 131.085938 224.371094 170.917969 210.554688 232.433594 201.835938 C 245.042969 200.046875 255.097656 190.238281 257.097656 177.667969 L 270.257812 95.015625 C 273.398438 75.28125 290.433594 60.753906 310.433594 60.753906 L 459.65625 60.753906 C 479.65625 60.753906 496.691406 75.28125 499.832031 95.015625 L 512.992188 177.667969 C 514.996094 190.238281 525.046875 200.046875 537.660156 201.835938 C 599.175781 210.554688 639.003906 224.371094 639.003906 240.007812 Z M 639.003906 240.007812 " fill-opacity="1" fill-rule="nonzero"/><path fill="#638fb6" d="M 238.695312 512.996094 L 238.695312 728.644531 C 217.710938 726.996094 197.628906 724.75 178.746094 722.355469 L 178.746094 512.996094 C 178.746094 505.640625 184.714844 499.675781 192.078125 499.675781 L 225.363281 499.675781 C 232.726562 499.675781 238.695312 505.640625 238.695312 512.996094 Z M 578.164062 499.675781 L 544.878906 499.675781 C 537.515625 499.675781 531.546875 505.640625 531.546875 512.996094 L 531.546875 728.644531 C 552.527344 726.996094 572.609375 724.75 591.496094 722.355469 L 591.496094 512.996094 C 591.496094 505.640625 585.527344 499.675781 578.164062 499.675781 Z M 578.164062 499.675781 " fill-opacity="1" fill-rule="nonzero"/><g clip-path="url(#42e85c2027)"><path fill="#102f42" d="M 691.355469 670.699219 L 676.808594 569.394531 C 671.453125 532.019531 640.453125 503.625 603.359375 500.347656 C 598.695312 491.105469 589.207031 484.691406 578.160156 484.691406 L 544.878906 484.691406 C 534.097656 484.691406 524.8125 490.816406 520.035156 499.695312 L 488.792969 499.695312 C 519.453125 467.394531 537.992188 423.796875 537.992188 375.976562 C 537.992188 374.230469 537.699219 372.535156 537.652344 370.796875 C 562.558594 368.402344 582.171875 347.617188 582.171875 322.117188 C 582.171875 308.988281 576.921875 297.113281 568.503906 288.285156 C 616.011719 279.121094 653.988281 264.238281 653.988281 240.003906 C 653.988281 224.195312 642.148438 201.511719 539.757812 187.003906 C 533.675781 186.140625 528.75 181.34375 527.800781 175.320312 L 514.632812 92.664062 C 510.308594 65.492188 487.191406 45.78125 459.652344 45.78125 L 310.429688 45.78125 C 282.910156 45.78125 259.785156 65.492188 255.449219 92.664062 L 242.300781 175.320312 C 241.335938 181.34375 236.417969 186.140625 230.320312 187.003906 C 127.933594 201.511719 116.09375 224.195312 116.09375 240.003906 C 116.09375 264.222656 154.042969 279.097656 201.53125 288.265625 C 193.101562 297.09375 187.847656 308.980469 187.847656 322.117188 C 187.847656 347.636719 207.492188 368.4375 232.4375 370.800781 C 232.386719 372.539062 232.097656 374.234375 232.097656 375.976562 C 232.097656 423.796875 250.660156 467.390625 281.355469 499.695312 L 250.207031 499.695312 C 245.421875 490.816406 236.140625 484.691406 225.359375 484.691406 L 192.078125 484.691406 C 181.03125 484.691406 171.546875 491.105469 166.878906 500.34375 C 129.800781 503.621094 98.792969 531.988281 93.4375 569.324219 L 78.867188 670.800781 C 74.988281 697.796875 93.109375 723.007812 120.125 728.183594 C 192.382812 742.003906 286.492188 749.609375 385.121094 749.609375 C 483.742188 749.609375 577.855469 742.003906 650.117188 728.183594 C 677.128906 723.007812 695.242188 697.753906 691.355469 670.699219 Z M 576.507812 514.640625 L 576.507812 709.027344 C 566.734375 710.195312 556.753906 711.273438 546.535156 712.257812 L 546.535156 514.640625 Z M 253.679688 529.648438 L 269.171875 529.648438 L 370.132812 654.605469 L 370.132812 719.515625 C 329.917969 719.195312 290.714844 717.617188 253.679688 714.832031 Z M 459.300781 524.757812 C 461.082031 525.570312 462.890625 526.308594 464.746094 526.917969 L 385.121094 625.480469 L 305.480469 526.90625 C 307.332031 526.296875 309.152344 525.597656 310.929688 524.785156 C 331.933594 538.917969 356.203125 548.832031 382.738281 553.089844 C 383.53125 553.21875 384.320312 553.28125 385.121094 553.28125 C 385.917969 553.28125 386.707031 553.21875 387.496094 553.089844 C 414.03125 548.832031 438.300781 538.910156 459.300781 524.757812 Z M 400.105469 654.605469 L 501.066406 529.648438 L 516.558594 529.648438 L 516.558594 714.832031 C 479.523438 717.617188 440.320312 719.195312 400.105469 719.515625 Z M 507.847656 296.859375 C 507.582031 303.339844 506.945312 309.824219 505.582031 316.253906 L 496.484375 358.898438 C 485.355469 411.074219 438.519531 448.953125 385.121094 448.953125 C 331.71875 448.953125 284.886719 411.074219 273.753906 358.898438 L 264.65625 316.253906 C 263.289062 309.820312 262.65625 303.339844 262.394531 296.863281 C 318.882812 302.542969 372.9375 302.902344 385.121094 302.902344 C 397.300781 302.902344 451.363281 302.542969 507.847656 296.859375 Z M 534.167969 341.078125 C 533.648438 338.480469 533.226562 335.855469 532.589844 333.300781 L 534.898438 322.480469 C 536.210938 316.296875 537.007812 310.058594 537.511719 303.820312 C 545.867188 305.910156 552.195312 313.125 552.195312 322.117188 C 552.195312 332.28125 544.183594 340.425781 534.167969 341.078125 Z M 234.527344 216.664062 C 253.820312 213.929688 268.835938 199.214844 271.902344 180.03125 L 285.058594 97.375 C 287.058594 84.828125 297.726562 75.730469 310.429688 75.730469 L 459.652344 75.730469 C 472.363281 75.730469 483.035156 84.828125 485.027344 97.375 L 498.1875 180.03125 C 501.242188 199.203125 516.257812 213.929688 535.546875 216.664062 C 591.566406 224.605469 615.039062 234.839844 622.230469 240.105469 C 606.496094 252.460938 526.898438 272.953125 385.121094 272.953125 C 243.246094 272.953125 163.59375 252.460938 147.855469 240.105469 C 155.046875 234.839844 178.515625 224.605469 234.527344 216.664062 Z M 217.820312 322.117188 C 217.820312 313.101562 224.460938 305.703125 232.675781 303.589844 C 233.175781 309.90625 234.003906 316.222656 235.339844 322.480469 L 237.527344 332.726562 C 236.847656 335.476562 236.402344 338.289062 235.851562 341.078125 C 225.839844 340.421875 217.820312 332.28125 217.820312 322.117188 Z M 268.589844 419.09375 C 295.078125 455.566406 338.054688 478.902344 385.121094 478.902344 C 432.097656 478.902344 475.003906 455.65625 501.503906 419.300781 C 501.613281 419.152344 501.746094 419.050781 501.855469 418.898438 C 486.175781 472.074219 441.929688 513.078125 385.121094 523.125 C 328.132812 513.050781 283.777344 471.894531 268.152344 418.59375 C 268.292969 418.78125 268.457031 418.90625 268.589844 419.09375 Z M 223.707031 514.640625 L 223.707031 712.257812 C 213.484375 711.273438 203.503906 710.195312 193.730469 709.027344 L 193.730469 514.640625 Z M 108.535156 675.039062 L 123.105469 573.578125 C 126.214844 551.960938 142.933594 534.988281 163.757812 530.738281 L 163.757812 705.046875 C 150.589844 703.109375 137.761719 701.058594 125.769531 698.761719 C 114.503906 696.613281 106.9375 686.183594 108.535156 675.039062 Z M 644.476562 698.761719 C 632.476562 701.058594 619.652344 703.109375 606.484375 705.046875 L 606.484375 530.738281 C 627.308594 534.992188 644.039062 551.984375 647.140625 573.636719 L 661.6875 674.953125 C 663.300781 686.140625 655.734375 696.613281 644.476562 698.761719 Z M 328.828125 125.058594 L 324.125 154.640625 C 323.917969 155.929688 322.804688 156.851562 321.535156 156.851562 C 321.402344 156.851562 321.261719 156.835938 321.121094 156.820312 C 319.6875 156.585938 318.714844 155.257812 318.941406 153.824219 L 323.648438 124.238281 C 323.867188 122.820312 325.164062 121.898438 326.648438 122.058594 C 328.082031 122.292969 329.054688 123.625 328.828125 125.058594 Z M 316.253906 199.1875 C 313.316406 209.132812 308.769531 218.417969 302.753906 226.753906 C 302.242188 227.457031 301.4375 227.835938 300.625 227.835938 C 300.09375 227.835938 299.558594 227.675781 299.085938 227.339844 C 297.917969 226.488281 297.652344 224.851562 298.496094 223.683594 C 304.171875 215.828125 308.453125 207.082031 311.222656 197.695312 C 311.632812 196.320312 313.125 195.5 314.476562 195.925781 C 315.867188 196.335938 316.664062 197.796875 316.253906 199.1875 Z M 316.253906 199.1875 " fill-opacity="1" fill-rule="nonzero"/></g></svg>