<svg xmlns="http://www.w3.org/2000/svg" xmlns:xlink="http://www.w3.org/1999/xlink" width="1000" zoomAndPan="magnify" viewBox="0 0 750 749.999995" height="1000" preserveAspectRatio="xMidYMid meet" version="1.0"><defs><clipPath id="db74d4d88a"><path d="M 75 4.058594 L 666 4.058594 L 666 735.308594 L 75 735.308594 Z M 75 4.058594 " clip-rule="nonzero"/></clipPath></defs><path fill="#fcee21" d="M 492.339844 130.582031 C 492.339844 130.582031 460.523438 74.289062 460.390625 73.820312 C 460.257812 73.355469 377.964844 83.59375 372.386719 88.246094 C 366.804688 92.898438 343.558594 157.566406 351 183.621094 C 358.4375 209.671875 389.589844 227.355469 412.835938 227.355469 C 436.082031 227.355469 508.148438 222.234375 502.566406 196.183594 C 496.988281 170.128906 492.339844 130.582031 492.339844 130.582031 Z M 492.339844 130.582031 " fill-opacity="1" fill-rule="nonzero"/><path fill="#000000" d="M 274.089844 474.945312 C 274.4375 474.410156 274.90625 473.796875 275.265625 473.128906 C 277.023438 469.84375 277.980469 466.292969 278.6875 462.65625 C 280.25 454.601562 282.699219 446.839844 286.351562 439.476562 C 288.691406 434.757812 291.082031 430.0625 293.414062 425.339844 C 293.667969 424.828125 294.285156 424.300781 293.570312 423.410156 C 278.171875 429.664062 262.160156 429.785156 245.191406 427.359375 C 247.089844 430.175781 248.875 432.246094 250.777344 434.210938 C 253.804688 437.332031 256.800781 440.492188 260 443.429688 C 262.429688 445.667969 264 448.265625 264.71875 451.449219 C 265.007812 452.730469 265.410156 453.988281 265.683594 455.273438 C 266.242188 457.886719 267.257812 460.296875 268.71875 462.523438 C 270.988281 465.992188 272.382812 469.792969 273.125 473.855469 C 273.199219 474.285156 273.019531 474.992188 274.089844 474.945312 Z M 274.089844 474.945312 " fill-opacity="1" fill-rule="nonzero"/><g clip-path="url(#db74d4d88a)"><path fill="#000000" d="M 664.636719 340.59375 C 665.152344 339.328125 666 338.121094 665.878906 336.347656 C 661.417969 339.753906 657.824219 343.695312 653.949219 348.128906 C 655.152344 342.5 656.300781 337.515625 657.273438 332.496094 C 658.65625 325.363281 659.613281 318.179688 659.332031 310.878906 C 659.257812 308.960938 659.191406 307.058594 657.976562 304.953125 C 657.3125 306.195312 656.792969 307.070312 656.363281 307.992188 C 654.898438 311.125 652.929688 313.921875 650.660156 316.511719 C 650.28125 316.9375 649.964844 317.679688 649.023438 317.09375 C 649.0625 316.234375 649.113281 315.320312 649.148438 314.402344 C 649.363281 309.136719 649.75 303.867188 649.734375 298.597656 C 649.71875 293.292969 648.660156 288.117188 646.699219 283.160156 C 646.46875 282.574219 646.320312 281.882812 645.292969 282.144531 C 645.066406 285.054688 644.011719 287.746094 642.464844 290.222656 C 640.902344 292.726562 639.378906 295.300781 636.800781 296.933594 C 634.46875 293.136719 632.273438 289.539062 630.050781 285.957031 C 628.511719 283.46875 627.308594 280.847656 626.695312 277.976562 C 626.089844 275.140625 625.550781 272.289062 624.875 269.472656 C 623.058594 261.910156 621.179688 254.367188 619.347656 246.808594 C 619.207031 246.230469 619.242188 245.605469 619.195312 244.921875 C 621.765625 244.96875 623.851562 246.507812 626.734375 245.984375 C 624.542969 243.65625 622.546875 241.785156 620.503906 239.953125 C 617.128906 236.925781 614.390625 233.394531 612.433594 229.300781 C 609.378906 222.921875 607.890625 216.117188 607.113281 209.132812 C 607.050781 208.582031 606.71875 207.832031 607.777344 207.320312 C 611.003906 210.382812 614.519531 213.222656 618.835938 215.949219 C 617.898438 213.316406 617.0625 211.273438 616.445312 209.167969 C 615.597656 206.257812 614.929688 203.296875 614.160156 200.363281 C 611.5625 190.417969 607.640625 181.144531 600.519531 173.496094 C 600.390625 173.359375 600.390625 173.101562 600.210938 172.488281 C 602.824219 173.476562 604.847656 174.851562 606.582031 176.617188 C 608.335938 178.398438 609.976562 180.296875 611.632812 182.171875 C 613.265625 184.019531 614.308594 186.332031 616.21875 188.046875 C 616.117188 186.1875 615.859375 184.410156 615.402344 182.683594 C 614.902344 180.777344 614.292969 178.890625 613.585938 177.046875 C 612.925781 175.328125 612.160156 173.640625 611.296875 172.011719 C 610.371094 170.269531 609.332031 168.578125 608.238281 166.933594 C 607.21875 165.398438 606.125 163.898438 604.941406 162.488281 C 603.667969 160.976562 602.308594 159.527344 600.878906 158.164062 C 599.546875 156.894531 598.128906 155.699219 596.648438 154.601562 C 595.0625 153.425781 593.378906 152.378906 591.707031 151.324219 C 590.195312 150.371094 588.644531 149.484375 586.585938 148.253906 C 588.785156 148.253906 590.324219 148.101562 591.820312 148.292969 C 593.507812 148.511719 595.144531 149.105469 596.824219 149.414062 C 598.28125 149.683594 599.589844 150.738281 601.476562 150.445312 C 599.765625 147.371094 597.644531 145.097656 595.027344 143.25 C 590.390625 139.980469 585.1875 138.28125 579.585938 137.683594 C 578.40625 137.558594 577.222656 137.464844 576.042969 137.328125 C 574.925781 137.195312 573.8125 137.019531 572.546875 136.839844 C 576.59375 132.109375 578.707031 128.941406 578.894531 127.335938 C 574.507812 130.476562 569.652344 132.066406 564.539062 132.722656 C 559.351562 133.390625 554.140625 133.382812 548.703125 131.957031 C 551.597656 128.617188 555.324219 126.792969 558.886719 123.496094 C 548.96875 125.351562 540.191406 124.5625 531.820312 119.683594 C 534.8125 118.230469 537.667969 117.007812 540.363281 115.496094 C 543.25 113.882812 545.871094 111.835938 548.023438 109.304688 C 550.046875 106.925781 552.207031 104.625 553.738281 101.574219 C 552.695312 101.445312 552.011719 101.914062 551.347656 102.234375 C 548.296875 103.703125 545.03125 104.160156 541.726562 104.097656 C 538.96875 104.046875 536.203125 103.722656 533.472656 103.300781 C 527.664062 102.410156 522.425781 99.886719 517.226562 97.308594 C 516.734375 97.066406 516.355469 96.601562 515.832031 96.164062 C 525.835938 91.277344 530.980469 85.664062 532.117188 78.546875 C 529.246094 79.402344 526.398438 80.316406 523.507812 81.085938 C 520.511719 81.882812 517.511719 81.574219 514.5 80.953125 C 509.628906 79.945312 508 79.414062 505.859375 77.699219 C 506.957031 77.699219 507.691406 77.699219 508.429688 77.699219 C 509.21875 77.699219 510.015625 77.757812 510.800781 77.683594 C 511.488281 77.621094 512.367188 78.019531 512.878906 76.894531 C 508.179688 74.203125 503.175781 72.488281 497.402344 71.589844 C 501.296875 67.917969 503.476562 63.816406 503.921875 58.597656 C 502.292969 59.566406 500.976562 60.4375 499.578125 61.136719 C 498.957031 61.449219 498.164062 61.421875 497.429688 61.550781 C 498.539062 58.894531 499.652344 56.5 500.53125 54.027344 C 501.371094 51.671875 501.988281 49.238281 502.65625 46.828125 C 503.347656 44.332031 503.855469 41.820312 503.03125 38.980469 C 501.691406 39.8125 500.617188 40.484375 499.078125 41.441406 C 499.539062 39.320312 499.902344 37.699219 500.246094 36.074219 C 501.359375 30.785156 502.441406 25.492188 503.585938 20.210938 C 504.144531 17.636719 504.855469 15.09375 505.425781 12.519531 C 506.078125 9.5625 505.988281 6.882812 505.199219 4.269531 C 504.242188 5.3125 503.347656 6.230469 502.511719 7.203125 C 499.242188 11.003906 495.992188 14.820312 492.738281 18.632812 C 488.703125 23.359375 484.234375 27.652344 479.539062 31.710938 C 476.636719 34.21875 473.566406 36.488281 470.09375 38.160156 C 469.667969 38.367188 469.230469 38.847656 468.511719 38.152344 C 468.882812 37.3125 469.164062 36.308594 469.714844 35.492188 C 471.410156 32.976562 473.214844 30.539062 474.957031 28.0625 C 475.289062 27.589844 476.03125 27.238281 475.460938 26.308594 C 472.148438 26.980469 468.921875 28.023438 465.722656 29.21875 C 462.5625 30.402344 459.640625 32.25 456.148438 32.878906 C 455.65625 28.4375 456.199219 24.277344 457.167969 20.148438 C 457.289062 19.625 457.738281 18.992188 456.777344 18.371094 C 454.46875 20.910156 452.109375 23.375 450.164062 26.1875 C 448.792969 28.179688 446.976562 28.691406 444.648438 28.417969 C 444.46875 25.957031 446.292969 24.167969 446.304688 21.617188 C 443.246094 23.753906 441.328125 26.625 438.847656 29.140625 C 438.15625 27.566406 437.566406 26.246094 437 24.914062 C 434.40625 18.832031 431.28125 13.035156 427.675781 7.5 C 427.328125 6.964844 427.058594 6.296875 426.164062 6.617188 C 425.46875 13.5625 422.832031 19.804688 419.042969 26.144531 C 418.292969 24.585938 417.703125 23.4375 417.179688 22.257812 C 416.003906 19.589844 414.589844 17.070312 412.703125 14.832031 C 412.292969 14.351562 411.890625 13.746094 410.875 14.320312 C 410.875 16.425781 410.949219 18.660156 410.851562 20.882812 C 410.757812 23.058594 411.308594 25.363281 409.714844 27.589844 C 407.363281 25.753906 405.125 23.949219 402.828125 22.222656 C 400.542969 20.507812 398.480469 18.4375 395.300781 17.199219 C 396.378906 22.53125 398.695312 27.203125 398.753906 32.589844 C 396.078125 31.761719 394.507812 29.441406 391.867188 28.222656 C 392.035156 29.324219 392.136719 30.011719 392.273438 30.921875 C 389.679688 29.988281 387.273438 29.023438 384.804688 28.253906 C 380.238281 26.824219 379.691406 26.828125 377.035156 27.582031 C 382.417969 32.359375 383.742188 34.300781 384.304688 38.347656 C 379.996094 36.835938 376.207031 34.546875 372.648438 31.867188 C 365.972656 26.839844 360.328125 20.738281 354.808594 14.519531 C 352.359375 11.757812 349.992188 8.921875 347.539062 6.160156 C 347.0625 5.621094 346.625 4.816406 345.503906 5.066406 C 345.417969 5.347656 345.253906 5.679688 345.226562 6.027344 C 344.972656 9.09375 345.601562 12.066406 346.230469 15.035156 C 347.566406 21.355469 348.9375 27.664062 350.277344 33.984375 C 350.550781 35.273438 350.703125 36.585938 350.964844 37.878906 C 351.21875 39.117188 351.703125 40.324219 351.554688 41.917969 C 349.980469 41.339844 349.207031 39.917969 347.824219 39.394531 C 347.519531 42.785156 345.84375 43.832031 354.011719 61.761719 C 351.117188 61.40625 349.171875 59.136719 346.285156 58.324219 C 346.535156 60.347656 347.253906 61.878906 347.90625 63.40625 C 348.527344 64.855469 349.308594 66.238281 350.046875 67.632812 C 350.820312 69.105469 352.445312 69.972656 353.253906 71.785156 C 351.914062 71.910156 350.882812 71.984375 349.855469 72.105469 C 345.886719 72.570312 342.097656 73.601562 338.699219 75.792969 C 338.175781 76.128906 337.488281 76.410156 337.84375 77.421875 C 340.058594 77.570312 342.335938 77.722656 345.652344 77.945312 C 344.53125 78.585938 344.222656 78.828125 343.871094 78.953125 C 335.652344 81.804688 327.433594 82.597656 319.230469 78.878906 C 319.109375 78.824219 318.996094 78.734375 318.871094 78.714844 C 318.285156 78.617188 317.695312 78.542969 316.863281 78.421875 C 318.210938 82.300781 320.058594 85.445312 322.628906 88.183594 C 325.558594 91.304688 328.96875 93.726562 332.847656 95.511719 C 333.371094 95.75 334.222656 95.734375 334.058594 96.882812 C 327.867188 99.601562 321.558594 102.238281 314.78125 103.441406 C 308.984375 104.46875 303.226562 104.390625 297.714844 101.890625 C 297.285156 101.695312 296.800781 101.628906 295.738281 101.335938 C 297.625 104.753906 299.535156 107.410156 301.953125 109.601562 C 304.289062 111.714844 306.742188 113.777344 309.417969 115.414062 C 312.15625 117.085938 315.230469 118.210938 318.417969 119.695312 C 315.863281 121.4375 313.257812 122.308594 310.644531 123.097656 C 304.617188 124.925781 298.460938 124.277344 291.839844 123.632812 C 293.417969 125.535156 295.164062 126.484375 296.671875 127.699219 C 298.277344 128.996094 300.070312 130.089844 301.613281 131.996094 C 300.375 132.269531 299.515625 132.515625 298.640625 132.640625 C 297.597656 132.789062 296.542969 132.859375 295.492188 132.921875 C 294.570312 132.976562 293.648438 132.980469 292.722656 132.988281 C 291.800781 132.996094 290.878906 133.003906 289.957031 132.964844 C 289.035156 132.925781 288.113281 132.855469 287.199219 132.746094 C 286.152344 132.621094 285.109375 132.445312 284.070312 132.265625 C 283.164062 132.109375 282.257812 131.9375 281.359375 131.734375 C 280.460938 131.527344 279.5625 131.3125 278.683594 131.03125 C 277.808594 130.75 276.941406 130.425781 276.105469 130.042969 C 275.148438 129.605469 274.242188 129.0625 273.296875 128.597656 C 272.550781 128.234375 271.960938 127.386719 270.734375 127.636719 C 271.058594 129.140625 271.8125 130.199219 272.613281 131.203125 C 273.433594 132.234375 274.386719 133.15625 275.246094 134.152344 C 276.042969 135.082031 277.339844 135.550781 278.09375 137.011719 C 276.21875 137.265625 274.664062 137.488281 273.109375 137.6875 C 269.039062 138.21875 265.074219 139.171875 261.332031 140.882812 C 257.445312 142.660156 253.957031 144.988281 251.511719 148.613281 C 251.183594 149.101562 250.632812 149.625 251.363281 150.378906 C 253.335938 149.808594 255.316406 149.148438 257.335938 148.679688 C 260.441406 147.960938 261.191406 147.996094 263.734375 148.507812 C 263.402344 148.78125 263.144531 149.078125 262.824219 149.246094 C 258.695312 151.386719 255.023438 154.179688 251.589844 157.273438 C 245.949219 162.359375 241.402344 168.3125 237.953125 175.082031 C 235.964844 178.972656 234.933594 183.144531 234.359375 187.914062 C 236.246094 186.484375 236.90625 184.699219 237.960938 183.242188 C 240.9375 179.128906 244.453125 175.625 248.980469 173.238281 C 249.472656 172.976562 250.074219 172.9375 251.140625 172.660156 C 250.441406 173.535156 250.117188 173.945312 249.789062 174.347656 C 242.699219 182.96875 238.125 192.761719 235.78125 203.675781 C 235.039062 207.136719 233.746094 210.480469 232.734375 213.886719 C 232.582031 214.402344 231.847656 214.90625 232.671875 215.585938 C 233.9375 214.65625 235.210938 213.726562 236.480469 212.789062 C 237.644531 211.925781 238.78125 211.019531 239.972656 210.191406 C 241.175781 209.355469 241.972656 207.921875 243.816406 207.390625 C 243.515625 209.148438 243.269531 210.5625 243.035156 211.976562 C 242.03125 217.988281 240.269531 223.769531 237.789062 229.34375 C 236.105469 233.128906 233.832031 236.484375 230.867188 239.375 C 229.074219 241.125 227.28125 242.875 225.507812 244.648438 C 225.101562 245.054688 224.328125 245.339844 224.917969 246.453125 C 227.101562 246.152344 229.382812 245.839844 231.96875 245.488281 C 231.585938 246.792969 231.367188 247.796875 230.996094 248.742188 C 229.328125 253.058594 228.070312 257.496094 227.105469 262.015625 C 226.308594 265.753906 225.519531 269.496094 224.871094 273.261719 C 224.046875 278.007812 222.421875 282.402344 219.789062 286.449219 C 217.847656 289.433594 216.039062 292.503906 214.164062 295.53125 C 213.84375 296.050781 213.503906 296.554688 213.011719 297.3125 C 212.222656 296.5625 211.644531 296.070312 211.132812 295.515625 C 210.6875 295.035156 210.285156 294.503906 209.910156 293.964844 C 209.457031 293.3125 209.042969 292.636719 208.644531 291.957031 C 208.242188 291.273438 207.859375 290.578125 207.511719 289.867188 C 207.167969 289.15625 206.867188 288.425781 206.566406 287.691406 C 206.316406 287.082031 206.070312 286.472656 205.859375 285.847656 C 205.605469 285.097656 205.417969 284.328125 205.152344 283.582031 C 204.925781 282.945312 205.28125 282 204.046875 281.648438 C 203.792969 282.265625 203.503906 282.828125 203.324219 283.421875 C 200.957031 291.199219 200.027344 299.136719 200.660156 307.257812 C 200.878906 310.015625 201.011719 312.785156 201.136719 315.550781 C 201.164062 316.144531 201.324219 316.90625 200.246094 317.132812 C 197.328125 314.140625 195.046875 310.628906 193.183594 306.816406 C 192.878906 306.191406 192.859375 305.253906 191.789062 305.292969 C 191.027344 308.421875 191.035156 311.566406 191.210938 314.742188 C 191.726562 324.117188 193.257812 333.34375 195.09375 342.53125 C 195.367188 343.898438 195.378906 345.320312 195.507812 346.714844 C 194.320312 346.597656 193.960938 345.488281 193.347656 344.753906 C 190.742188 341.613281 187.855469 338.769531 184.421875 335.558594 C 184.527344 336.675781 184.480469 337.171875 184.628906 337.605469 C 185.148438 339.097656 185.730469 340.570312 186.300781 342.046875 C 189.792969 351.035156 192.832031 360.15625 194.425781 369.699219 C 194.578125 370.609375 194.753906 371.527344 194.773438 372.445312 C 194.789062 373.425781 195.226562 374.453125 194.566406 375.625 C 193.546875 374.601562 192.660156 373.679688 191.738281 372.789062 C 190.59375 371.691406 190.582031 371.703125 188.335938 370.972656 C 190.472656 375.851562 191.730469 380.808594 192.78125 385.816406 C 194.191406 392.539062 195.359375 399.296875 194.640625 406.222656 C 194 412.382812 193.5 418.550781 192.414062 424.667969 C 191.300781 430.925781 189.742188 437.035156 187.445312 442.953125 C 187.203125 443.570312 186.792969 444.117188 186.03125 445.460938 C 186.140625 443.769531 186.132812 442.984375 186.25 442.214844 C 187.160156 436.21875 188.148438 430.234375 189 424.230469 C 189.480469 420.839844 189.710938 417.414062 190.121094 414.011719 C 190.363281 412.011719 189.722656 410.453125 188.324219 409.023438 C 184.609375 405.230469 180.421875 402.074219 175.828125 399.4375 C 175.765625 399.402344 175.625 399.503906 175.257812 399.636719 C 175.984375 402.03125 177.28125 404.121094 178.785156 406.074219 C 180.277344 408.019531 181.902344 409.863281 183.558594 411.863281 C 183.011719 411.960938 182.746094 412.089844 182.523438 412.035156 C 174.847656 410.160156 167.878906 406.847656 161.957031 401.550781 C 156.304688 396.488281 151.761719 390.539062 148.125 383.871094 C 143.832031 376.003906 141.53125 367.507812 140.195312 358.730469 C 138.953125 350.585938 138.886719 342.441406 140.714844 334.347656 C 140.757812 334.160156 140.597656 333.925781 140.464844 333.5 C 137.746094 336.089844 136.128906 339.265625 134.820312 342.535156 C 133.453125 345.949219 132.320312 349.484375 131.410156 353.046875 C 130.554688 356.398438 130.125 359.855469 129.375 363.972656 C 128.585938 362.191406 128.039062 361.039062 127.558594 359.863281 C 125.351562 354.46875 123.933594 348.847656 122.863281 343.136719 C 121.398438 335.324219 120.941406 327.4375 121.214844 319.5 C 121.386719 314.609375 122.109375 309.789062 123.050781 304.996094 C 125.121094 294.441406 129.308594 284.707031 134.601562 275.304688 C 133.121094 275.941406 131.824219 276.734375 130.574219 277.589844 C 129.265625 278.480469 127.984375 279.410156 126.714844 280.359375 C 125.554688 281.226562 124.390625 282.097656 123.289062 283.039062 C 122.089844 284.066406 120.945312 285.167969 119.800781 286.257812 C 118.652344 287.347656 117.503906 288.441406 116.414062 289.585938 C 115.320312 290.726562 114.257812 291.90625 113.242188 293.121094 C 112.3125 294.230469 111.429688 295.386719 110.585938 296.566406 C 109.664062 297.851562 108.78125 299.164062 107.9375 300.503906 C 107.09375 301.839844 106.28125 303.203125 105.527344 304.59375 C 104.769531 305.984375 104.066406 307.402344 103.398438 308.835938 C 102.78125 310.148438 102.210938 311.484375 101.679688 312.832031 C 101.097656 314.304688 100.539062 315.785156 100.058594 317.292969 C 99.582031 318.800781 99.195312 320.335938 98.808594 321.871094 C 98.421875 323.402344 98.03125 324.941406 97.742188 326.496094 C 97.476562 327.917969 97.320312 329.363281 97.15625 330.804688 C 96.980469 332.378906 96.832031 333.953125 96.703125 335.527344 C 96.582031 336.996094 96.835938 338.507812 96.246094 340.742188 C 95.6875 339.136719 95.363281 338.304688 95.105469 337.453125 C 94.839844 336.570312 94.609375 335.675781 94.40625 334.773438 C 94.203125 333.875 94.03125 332.964844 93.882812 332.054688 C 93.734375 331.144531 93.605469 330.230469 93.523438 329.3125 C 93.4375 328.394531 93.40625 327.46875 93.367188 326.546875 C 93.328125 325.625 93.285156 324.699219 93.292969 323.777344 C 93.300781 322.855469 93.394531 321.933594 93.402344 321.007812 C 93.410156 320.183594 93.691406 319.296875 93.019531 318.128906 C 91.226562 321.542969 90.285156 324.8125 89.203125 328.027344 C 87.042969 334.425781 85.5 340.984375 85.023438 347.710938 C 84.710938 352.171875 84.773438 356.6875 85.054688 361.15625 C 85.707031 371.644531 88.855469 381.507812 93.730469 391.699219 C 92.585938 391.035156 92.125 390.875 91.808594 390.5625 C 90.582031 389.371094 89.335938 388.183594 88.214844 386.894531 C 83.320312 381.261719 79.683594 374.867188 76.894531 367.96875 C 76.613281 367.277344 76.554688 366.410156 75.441406 366.253906 C 75 371.71875 75.945312 377.035156 76.914062 382.332031 C 77.863281 387.527344 79.300781 392.601562 81.234375 397.527344 C 83.214844 402.574219 85.597656 407.417969 88.566406 411.964844 C 91.457031 416.398438 94.699219 420.550781 98.445312 424.292969 C 102.207031 428.054688 106.515625 431.160156 110.726562 434.460938 C 109.859375 434.523438 109.105469 434.375 108.355469 434.214844 C 107.582031 434.050781 106.804688 433.898438 106.039062 433.707031 C 105.273438 433.515625 104.511719 433.289062 103.753906 433.070312 C 102.867188 432.8125 101.984375 432.558594 101.101562 432.285156 C 100.347656 432.050781 99.597656 431.796875 98.847656 431.542969 C 98.101562 431.289062 97.355469 431.027344 96.613281 430.757812 C 95.871094 430.488281 95.125 430.222656 94.394531 429.925781 C 93.660156 429.628906 92.929688 429.324219 92.21875 428.980469 C 91.511719 428.632812 90.8125 428.253906 90.132812 427.851562 C 89.339844 427.386719 88.5625 426.886719 87.789062 426.382812 C 87.125 425.953125 86.503906 425.449219 85.8125 425.070312 C 85.226562 424.75 84.859375 423.800781 83.894531 424.265625 C 88.164062 431.839844 91.265625 435.613281 99.15625 443.390625 C 110.960938 455.03125 125.175781 461.035156 141.648438 461.890625 C 142.257812 461.921875 142.992188 461.699219 143.335938 462.503906 C 143.167969 462.699219 143.046875 462.96875 142.84375 463.050781 C 135.394531 466.09375 127.613281 467.25 119.621094 466.804688 C 117.039062 466.65625 114.320312 466.652344 112.03125 465.039062 L 112.054688 464.964844 C 112.054688 464.964844 112.054688 464.960938 112.054688 464.960938 C 112.019531 465 111.980469 465.039062 111.945312 465.078125 C 111.964844 465.074219 111.980469 465.074219 112 465.066406 C 111.566406 465.929688 112.121094 466.4375 112.769531 466.898438 C 119.484375 471.710938 126.855469 475.152344 134.851562 477.167969 C 145.253906 479.789062 155.671875 480.160156 166.046875 476.914062 C 166.46875 476.78125 166.953125 476.832031 167.609375 476.785156 C 163.269531 481.597656 160.574219 483.394531 154.855469 485.460938 C 154.011719 485.765625 152.949219 485.789062 152.222656 486.945312 C 165.839844 487.8125 178.507812 486.101562 189.960938 478.480469 C 190.195312 475.074219 190.503906 471.800781 190.625 468.519531 C 190.851562 462.328125 190.730469 456.121094 191.714844 449.980469 C 191.804688 449.402344 191.601562 448.609375 192.773438 448.382812 C 192.886719 449.132812 193.046875 449.851562 193.09375 450.578125 C 193.230469 452.683594 193.226562 454.800781 193.445312 456.894531 C 194.226562 464.527344 194.320312 472.152344 193.480469 479.789062 C 193.296875 481.488281 193.371094 483.214844 193.25 484.925781 C 192.863281 490.226562 194.105469 495.097656 196.851562 499.652344 C 198.777344 502.839844 199.925781 506.347656 200.414062 510.054688 C 200.652344 511.882812 200.9375 513.707031 201.132812 515.539062 C 201.65625 520.476562 203.605469 524.667969 207.535156 527.808594 C 209.488281 529.371094 211.449219 530.9375 213.511719 532.347656 C 217.402344 535.011719 221.820312 536.261719 226.4375 536.863281 C 226.980469 536.933594 227.765625 537.238281 228.042969 536.179688 C 224.191406 533.355469 221.320312 529.589844 218.242188 526 C 215.34375 522.621094 213.144531 519.039062 212.753906 514.480469 C 212.628906 513.0625 211.980469 511.691406 211.664062 510.28125 C 211.472656 509.414062 211.441406 508.511719 211.34375 507.625 C 212.136719 507.738281 212.164062 508.472656 212.355469 509.03125 C 213.429688 512.144531 214.535156 515.25 215.523438 518.394531 C 216.527344 521.605469 218.519531 523.84375 221.496094 525.402344 C 224.058594 526.742188 226.496094 528.332031 228.949219 529.867188 C 230.640625 530.925781 232.375 531.8125 234.378906 532.125 C 241.6875 533.265625 248.285156 531.46875 254.085938 527.019531 C 256.902344 524.859375 259.398438 522.285156 262.007812 519.859375 C 262.40625 519.488281 263.125 519.125 262.691406 518.320312 C 252.492188 520.335938 247.089844 519.800781 237.3125 515.777344 C 237.707031 515.558594 238.019531 515.300781 238.375 515.199219 C 241.210938 514.40625 243.132812 512.480469 244.726562 510.132812 C 245.988281 508.277344 247.277344 506.441406 248.515625 504.574219 C 248.847656 504.070312 249.046875 503.480469 249.320312 502.902344 C 247.074219 502.160156 247.027344 502.050781 246.117188 502.402344 C 243.910156 503.25 241.707031 504.136719 239.574219 505.152344 C 237.195312 506.289062 234.824219 506.339844 232.453125 505.746094 C 231.277344 501.1875 230.09375 496.875 229.085938 492.519531 C 228.765625 491.140625 228.703125 489.621094 228.894531 488.214844 C 229.355469 484.820312 229.972656 481.445312 230.65625 478.089844 C 230.917969 476.820312 231.292969 475.4375 232.050781 474.441406 C 234.117188 471.722656 236.417969 469.191406 239.433594 467.578125 C 244.671875 469.917969 248.453125 473.644531 251.414062 478.316406 C 252.316406 479.738281 252.820312 481.117188 252.199219 482.777344 C 251.347656 485.046875 251.753906 487.191406 252.992188 489.207031 C 254.003906 490.84375 254.25 492.625 254.203125 494.515625 C 254.121094 497.945312 254.121094 501.378906 254.121094 504.808594 C 254.121094 505.398438 253.8125 506.136719 254.605469 506.511719 C 257.988281 505.160156 260.421875 503.28125 263.328125 499.992188 C 267.15625 495.664062 269.242188 490.699219 269.171875 484.867188 C 269.132812 481.964844 269.121094 479.058594 269.21875 476.160156 C 269.320312 473.179688 268.644531 470.390625 267.378906 467.742188 C 266.128906 465.125 264.773438 462.554688 263.457031 459.972656 C 262.074219 457.261719 260.851562 454.496094 260.402344 451.449219 C 260.046875 449.007812 258.910156 446.984375 257.136719 445.277344 C 254.851562 443.085938 252.574219 440.886719 250.355469 438.628906 C 247.671875 435.90625 245.035156 433.132812 242.40625 430.355469 C 240.777344 428.632812 240.082031 426.601562 240.386719 424.195312 C 240.769531 421.1875 240.871094 418.140625 241.371094 415.15625 C 243.488281 402.464844 248.222656 390.835938 255.871094 380.460938 C 258.226562 377.269531 260.527344 374.066406 262.34375 370.53125 C 262.546875 370.136719 262.648438 369.464844 263.382812 369.578125 C 264.183594 372.789062 264.167969 372.976562 262.492188 383.023438 C 262.601562 383.011719 262.757812 383.046875 262.816406 382.984375 C 263.171875 382.609375 263.542969 382.246094 263.839844 381.824219 C 269.390625 373.976562 273.253906 365.359375 275.332031 355.972656 C 276.273438 351.726562 277.046875 347.417969 276.703125 343.035156 C 276.261719 337.382812 275.847656 331.71875 275.128906 326.097656 C 274.625 322.160156 275.367188 318.492188 276.527344 314.828125 C 277.0625 313.144531 278.074219 311.898438 279.535156 310.808594 C 283.332031 307.972656 287.046875 305.011719 290.675781 301.957031 C 296.808594 296.792969 301.632812 290.546875 305.160156 283.355469 C 306.78125 280.046875 308.269531 276.644531 309.4375 273.15625 C 310.984375 268.539062 312.148438 263.792969 313.503906 259.109375 C 313.667969 258.535156 313.988281 258.003906 314.398438 257.085938 C 315.511719 261.457031 316.292969 265.421875 317.550781 269.226562 C 318.875 273.222656 320.484375 277.144531 322.277344 280.949219 C 325.097656 286.925781 326.753906 289.179688 329.078125 291.070312 L 329.078125 285.324219 C 329.488281 285.617188 329.765625 285.71875 329.886719 285.914062 C 332.824219 290.609375 335.824219 295.265625 338.640625 300.03125 C 340.3125 302.859375 341.9375 305.761719 343.152344 308.804688 C 346.425781 316.980469 346.746094 325.417969 344.875 334.203125 C 342.050781 333.664062 340.421875 331.3125 337.839844 330.171875 C 337.988281 332.660156 337.863281 334.925781 338.300781 337.078125 C 339.375 342.367188 338.386719 347.335938 336.300781 352.128906 C 332.722656 360.351562 327.929688 367.683594 320.492188 373 C 320.042969 373.320312 319.230469 373.554688 319.804688 374.664062 C 321.011719 374.539062 322.339844 374.546875 323.59375 374.246094 C 326.277344 373.605469 328.925781 372.796875 331.589844 372.066406 C 332.257812 371.886719 332.933594 371.75 333.933594 371.515625 C 333.472656 372.351562 333.230469 372.816406 332.964844 373.269531 C 326.433594 384.363281 317.578125 393.308594 307.367188 401 C 304.9375 402.828125 302.4375 404.53125 299.519531 405.515625 C 299.070312 405.667969 298.695312 406.039062 298.113281 406.421875 C 299.527344 407.460938 300.898438 407.71875 302.316406 407.785156 C 303.898438 407.859375 305.480469 407.863281 307.058594 407.9375 C 307.648438 407.96875 308.402344 407.660156 308.707031 408.503906 C 308.683594 408.65625 308.695312 408.808594 308.632812 408.910156 C 308 409.910156 307.382812 410.921875 306.710938 411.894531 C 299.507812 422.339844 293.238281 433.320312 287.875 444.824219 C 286.195312 448.417969 284.835938 452.125 284 456.011719 C 283.886719 456.53125 283.847656 457.070312 283.679688 458.246094 C 287.113281 454.546875 290.050781 451.351562 293.027344 448.191406 C 293.652344 447.527344 294.410156 446.984375 295.117188 446.390625 C 295.214844 446.308594 295.355469 446.226562 295.46875 446.230469 C 295.554688 446.238281 295.628906 446.390625 295.835938 446.613281 C 294.949219 448.25 293.914062 449.910156 293.117188 451.679688 C 289.597656 459.492188 286.0625 467.296875 282.6875 475.171875 C 277.964844 486.179688 276.660156 497.777344 277.128906 509.640625 C 277.140625 509.96875 277.347656 510.292969 277.597656 510.984375 C 279.175781 509.289062 279.5625 507.316406 280.488281 505.660156 C 281.394531 504.035156 281.964844 502.195312 283.824219 500.09375 C 283.40625 501.855469 283.207031 502.738281 282.984375 503.617188 C 280.179688 514.65625 278.886719 525.910156 278.410156 537.261719 C 278.324219 539.332031 278.582031 541.53125 279.226562 543.492188 C 280.386719 547.019531 281.269531 550.550781 281.386719 554.269531 C 281.421875 555.453125 281.652344 556.628906 281.804688 557.804688 C 282.359375 562.007812 283.3125 566.109375 285 570.007812 C 285.226562 570.535156 285.730469 570.9375 286.355469 571.699219 C 286.800781 569.050781 287.171875 566.847656 287.550781 564.648438 C 287.570312 564.542969 287.65625 564.410156 287.75 564.363281 C 287.855469 564.304688 288.003906 564.328125 288.28125 564.300781 C 289.761719 566.992188 291.125 569.832031 292.820312 572.457031 C 294.53125 575.109375 296.429688 577.667969 298.507812 580.039062 C 300.539062 582.363281 302.585938 584.746094 305.722656 586.804688 C 305.277344 583.417969 303.484375 580.9375 303.289062 577.933594 C 306.273438 579.90625 308.960938 581.980469 311.914062 583.554688 C 314.902344 585.148438 318.148438 586.25 321.265625 587.5625 C 321.335938 588.546875 321.417969 589.328125 321.445312 590.113281 C 321.640625 595.703125 320.570312 601.140625 319.402344 606.558594 C 317.449219 615.613281 314.25 624.273438 311.03125 632.921875 C 306.929688 643.929688 302.554688 654.816406 296.847656 665.109375 C 295.441406 667.644531 293.976562 670.160156 292.320312 672.535156 C 288.472656 678.070312 283.40625 682.203125 277.265625 684.980469 C 274.839844 686.082031 272.351562 686.753906 269.605469 686.429688 C 266.203125 686.027344 263.054688 687.015625 260.222656 688.871094 C 258.574219 689.949219 256.996094 691.167969 255.515625 692.46875 C 252.546875 695.082031 249.632812 697.757812 246.761719 700.480469 C 245.714844 701.472656 244.808594 702.625 243.929688 703.773438 C 241.464844 707.007812 239.679688 710.527344 238.335938 714.230469 L 238.332031 714.238281 C 238.332031 714.238281 232.054688 729.742188 235.773438 735.09375 L 346.894531 735.09375 C 346.894531 735.09375 350.722656 721.164062 350.53125 707.699219 C 351.214844 709.027344 351.917969 710.40625 352.734375 711.992188 C 355.722656 703.261719 355.585938 694.527344 355.421875 685.429688 C 357.765625 686.402344 359.285156 688.203125 361.46875 688.566406 C 361.550781 688.324219 361.664062 688.164062 361.625 688.097656 C 359.269531 684.097656 358.816406 679.664062 358.5625 675.164062 C 357.898438 663.4375 359.546875 652 362.964844 640.808594 C 365.039062 634.003906 367.277344 627.246094 369.535156 620.496094 C 370.195312 618.523438 371.175781 616.65625 372.183594 614.335938 C 374.457031 617.523438 374.855469 620.972656 376.273438 624.292969 C 378.679688 620.90625 379.519531 617.203125 380.484375 613.550781 C 381.457031 609.886719 381.253906 606 382.515625 602.023438 C 384.605469 604.46875 384.773438 607.34375 385.894531 610.070312 C 388.132812 607.164062 388.566406 603.746094 389.390625 600.492188 C 390.207031 597.273438 390.546875 593.984375 390.132812 590.675781 C 389.703125 587.246094 388.648438 583.992188 386.714844 580.964844 C 388.609375 580.148438 390.425781 579.527344 392.070312 578.605469 C 393.640625 577.722656 395.050781 576.542969 396.011719 574.867188 C 386.914062 571.800781 380 565.242188 375.90625 555.917969 C 372.652344 548.511719 371.546875 540.730469 372.140625 532.71875 C 372.558594 527.089844 374.886719 522.335938 379.289062 518.660156 C 384.460938 514.34375 389.421875 509.820312 392.417969 503.746094 C 393.371094 503.757812 393.40625 504.308594 393.40625 504.8125 C 393.421875 508.105469 393.414062 511.394531 393.414062 514.71875 C 394.265625 514.972656 394.460938 514.148438 394.78125 513.691406 C 399.199219 507.308594 401.953125 500.203125 403.609375 492.671875 C 404.375 489.203125 404.832031 485.667969 405.449219 482.164062 C 405.488281 481.960938 405.710938 481.785156 406.027344 481.355469 C 408.402344 484.332031 409.40625 487.847656 410.636719 491.230469 C 411.851562 494.570312 412.921875 497.957031 414.164062 501.660156 C 415.695312 499.605469 415.742188 497.183594 417.285156 495.457031 C 418.820312 499.335938 418.914062 503.1875 418.277344 510.191406 C 417.835938 515.039062 416.785156 519.753906 415.488281 524.898438 C 420.003906 522.0625 423.433594 518.824219 426.46875 515.148438 C 432.753906 507.539062 437.605469 499.152344 440.402344 489.628906 C 441.03125 487.480469 441.824219 485.378906 442.578125 483.269531 C 442.789062 482.6875 443.140625 482.15625 443.71875 481.035156 C 444.433594 484.613281 445.019531 487.546875 445.605469 490.480469 C 446.96875 497.25 449.121094 503.730469 452.710938 509.671875 C 453.664062 511.246094 454.769531 512.734375 455.851562 514.222656 C 456.136719 514.609375 456.609375 514.859375 456.992188 515.167969 C 456.867188 511.769531 456.734375 508.519531 456.640625 505.261719 C 456.632812 504.929688 456.839844 504.589844 457.011719 504.054688 C 457.417969 504.402344 457.769531 504.578125 457.929688 504.859375 C 459.851562 508.238281 462.570312 510.917969 465.421875 513.484375 C 467.578125 515.425781 469.710938 517.398438 471.90625 519.292969 C 475.960938 522.804688 477.621094 527.46875 478.070312 532.582031 C 478.878906 541.75 476.957031 550.402344 472.710938 558.570312 C 470.425781 562.960938 467.414062 566.753906 463.746094 570.039062 C 461.453125 572.09375 458.855469 573.597656 455.8125 574.273438 C 455.082031 574.433594 454.375 574.722656 453.492188 575.011719 C 455.726562 578.417969 458.984375 579.707031 462.679688 580.613281 C 461.878906 583.015625 460.839844 585.273438 460.414062 587.636719 C 459.953125 590.207031 459.828125 592.890625 460 595.496094 C 460.160156 597.96875 460.757812 600.441406 461.40625 602.847656 C 462.050781 605.226562 462.648438 607.667969 464.21875 609.964844 C 465.242188 607.308594 465.347656 604.5625 467.308594 602.242188 C 468.632812 604.632812 468.484375 607.152344 469.070312 609.464844 C 469.652344 611.757812 469.878906 614.144531 470.457031 616.441406 C 471.066406 618.851562 471.636719 621.300781 472.945312 623.417969 C 473.964844 623.59375 474.070312 622.824219 474.316406 622.269531 C 475.382812 619.867188 476.429688 617.453125 477.644531 614.675781 C 478.21875 615.5625 478.699219 616.121094 478.980469 616.765625 C 482.59375 625.003906 485.050781 633.628906 487.496094 642.253906 C 489.765625 650.265625 491.542969 658.378906 491.847656 666.734375 C 492.105469 673.878906 491.886719 680.980469 489.253906 687.777344 C 489.121094 688.128906 489.105469 688.523438 488.976562 689.234375 C 491.339844 688.648438 492.609375 686.5 494.871094 685.917969 C 495.566406 686.6875 495.207031 687.617188 495.179688 688.449219 C 495.074219 691.875 494.855469 695.300781 494.796875 698.726562 C 494.71875 703.011719 495.757812 707.09375 497.296875 711.058594 C 497.421875 711.382812 497.792969 711.613281 498.25 712.105469 C 498.949219 710.023438 498.667969 707.765625 500.296875 706.238281 C 500.296875 706.238281 499.625 726.5625 504.738281 735.089844 L 617.253906 735.089844 C 617.253906 735.089844 618.4375 723.554688 608.722656 707.230469 C 607.726562 705.304688 606.582031 703.484375 605.210938 701.828125 C 605.203125 701.820312 605.199219 701.8125 605.195312 701.804688 C 605.191406 701.804688 605.191406 701.804688 605.191406 701.804688 C 604.46875 700.9375 603.6875 700.113281 602.828125 699.34375 C 599.59375 696.4375 596.363281 693.523438 593.101562 690.640625 C 592.316406 689.945312 591.472656 689.285156 590.566406 688.757812 C 587.210938 686.792969 583.722656 685.363281 579.695312 686.398438 C 578.371094 686.738281 577.109375 686.371094 575.832031 685.949219 C 568.394531 683.515625 562.617188 678.878906 558.257812 672.496094 C 556.109375 669.34375 554.171875 666.019531 552.445312 662.617188 C 544.128906 646.238281 537.308594 629.253906 532.226562 611.585938 C 530.546875 605.742188 529.386719 599.789062 528.972656 593.714844 C 528.664062 589.234375 529.3125 588.246094 533.378906 586.582031 C 537.8125 584.769531 541.949219 582.511719 545.261719 578.953125 C 545.59375 578.59375 546.050781 578.355469 546.863281 577.75 C 546.792969 579.070312 546.808594 579.929688 546.683594 580.765625 C 546.527344 581.804688 546.195312 582.820312 546.046875 583.859375 C 545.933594 584.652344 545.425781 585.488281 546.078125 586.730469 C 552.605469 580.09375 557.988281 573.09375 561.835938 564.199219 C 562.210938 565.464844 562.472656 566.050781 562.550781 566.660156 C 562.742188 568.097656 562.804688 569.554688 563.015625 570.988281 C 563.097656 571.535156 563.082031 572.332031 564.179688 572.328125 C 566.480469 567.425781 567.882812 562.246094 568.265625 556.820312 C 568.542969 552.855469 569.070312 548.96875 570.34375 545.179688 C 571.394531 542.042969 572.082031 538.78125 571.992188 535.46875 C 571.886719 531.519531 571.703125 527.546875 571.179688 523.636719 C 570.222656 516.449219 569.015625 509.296875 567.058594 502.296875 C 566.902344 501.738281 566.890625 501.140625 566.8125 500.5625 C 568.878906 502.789062 570.171875 505.359375 571.457031 507.9375 C 571.738281 508.5 571.921875 509.199219 572.972656 509.089844 C 572.757812 506.339844 572.433594 503.59375 572.34375 500.84375 C 572.164062 495.414062 571.304688 490.078125 570.105469 484.808594 C 567.164062 471.902344 562.492188 459.589844 557.078125 447.542969 C 556.609375 446.5 555.804688 445.609375 555.15625 444.648438 C 555.15625 444.648438 555.203125 444.675781 555.203125 444.675781 C 556.148438 444.167969 556.699219 444.796875 557.171875 445.429688 C 560.089844 449.339844 562.976562 453.273438 565.890625 457.179688 C 566.222656 457.625 566.679688 457.980469 567.542969 458.832031 C 567.386719 457.507812 567.398438 456.84375 567.222656 456.234375 C 566.109375 452.445312 565.105469 448.617188 563.789062 444.894531 C 560.550781 435.722656 555.335938 427.636719 549.691406 419.804688 C 547.300781 416.488281 544.894531 413.1875 542.53125 409.847656 C 542.203125 409.378906 542.105469 408.746094 541.851562 408.054688 C 545.742188 407.695312 549.558594 408.421875 552.910156 405.765625 C 552.160156 405.347656 551.632812 404.925781 551.03125 404.734375 C 546.808594 403.386719 543.179688 401.035156 539.828125 398.210938 C 532.847656 392.324219 526.394531 385.941406 521.164062 378.402344 C 519.683594 376.265625 518.183594 374.140625 516.628906 371.925781 C 517.882812 371.453125 518.617188 372.199219 519.457031 372.394531 C 522.527344 373.117188 525.582031 373.902344 528.660156 374.582031 C 529.171875 374.695312 530 374.890625 530.199219 373.902344 C 529.402344 373.203125 528.613281 372.515625 527.835938 371.816406 C 521.570312 366.160156 516.769531 359.488281 513.617188 351.617188 C 512.109375 347.855469 511.398438 344.050781 511.960938 340.019531 C 512.070312 339.238281 512.089844 338.441406 512.121094 337.652344 C 512.152344 336.863281 512.136719 336.070312 512.15625 335.277344 C 512.183594 334.355469 512.265625 333.433594 512.261719 332.511719 C 512.257812 331.832031 512.964844 331.105469 512.078125 330.316406 C 510.484375 331.484375 508.9375 332.683594 507.3125 333.773438 C 506.738281 334.160156 505.980469 334.269531 505.171875 334.554688 C 504.976562 332.28125 504.910156 330.296875 504.617188 328.347656 C 503.648438 321.902344 504.828125 315.746094 506.976562 309.710938 C 508.539062 305.328125 511.046875 301.449219 513.464844 297.515625 C 515.808594 293.703125 517.976562 289.777344 520.246094 285.917969 C 520.480469 285.519531 520.875 285.214844 521.277344 284.773438 C 522.070312 286.8125 521.1875 288.832031 522.125 291.019531 C 529.6875 280.921875 533.703125 269.800781 536.171875 257.121094 C 536.789062 258.65625 537.132812 259.339844 537.34375 260.0625 C 538.449219 263.855469 539.40625 267.699219 540.625 271.460938 C 544.839844 284.445312 551.921875 295.511719 562.710938 304.050781 C 565.398438 306.175781 567.996094 308.425781 570.765625 310.441406 C 572.921875 312.007812 574.132812 313.960938 574.714844 316.554688 C 575.78125 321.277344 575.5625 325.988281 575.101562 330.726562 C 574.742188 334.402344 574.175781 338.066406 574.023438 341.746094 C 573.878906 345.292969 573.820312 348.898438 574.289062 352.398438 C 575.75 363.363281 580.574219 372.996094 586.644531 382.070312 C 586.867188 382.402344 587.339844 382.570312 587.882812 382.949219 C 586.761719 376.191406 586.5 371.742188 587.097656 369.601562 C 587.316406 369.707031 587.621094 369.753906 587.75 369.929688 C 590.144531 373.238281 592.480469 376.589844 594.914062 379.871094 C 597.671875 383.59375 600.285156 387.417969 602.011719 391.71875 C 603.925781 396.484375 605.726562 401.308594 607.261719 406.207031 C 609.046875 411.902344 609.605469 417.820312 609.636719 423.785156 C 609.648438 425.445312 609.238281 426.855469 608.074219 428.097656 C 605.914062 430.410156 603.894531 432.855469 601.710938 435.144531 C 599.160156 437.8125 596.496094 440.371094 593.871094 442.972656 C 591.96875 444.863281 590.464844 446.976562 589.886719 449.667969 C 589.378906 452.03125 588.148438 454.070312 586.8125 456.042969 C 584.285156 459.78125 582.292969 463.796875 580.921875 468.085938 C 579.757812 471.722656 578.84375 475.441406 577.753906 479.101562 C 576.390625 483.683594 577.367188 487.984375 579.292969 492.144531 C 581.144531 496.148438 583.832031 499.554688 587.195312 502.410156 C 588.382812 503.421875 589.640625 504.320312 591.402344 505.226562 C 591.261719 503.527344 591.261719 502.234375 591.035156 500.988281 C 590.546875 498.347656 590.558594 495.730469 591.203125 493.140625 C 592.34375 488.535156 593.460938 483.925781 594.769531 479.367188 C 595.152344 478.023438 596.035156 476.769531 596.875 475.609375 C 600.40625 470.726562 605.792969 468.441406 610.710938 465.515625 C 613.710938 467.3125 615.683594 469.804688 617.726562 472.195312 C 618.292969 472.859375 618.722656 473.828125 618.796875 474.695312 C 619.222656 479.59375 620.601562 484.273438 621.835938 488.992188 C 622.304688 490.796875 622.460938 492.671875 621.960938 494.480469 C 620.875 498.40625 619.417969 502.203125 617.804688 505.949219 C 615.601562 505.453125 613.578125 504.660156 611.539062 504.617188 C 608.027344 504.539062 604.8125 503.511719 601.570312 502.394531 C 600.496094 502.027344 599.523438 501.226562 597.914062 501.445312 C 599.515625 504.226562 601.359375 506.5625 603.222656 508.882812 C 604.832031 510.878906 606.78125 512.378906 609.269531 513.140625 C 610.070312 513.386719 610.8125 513.820312 611.957031 514.339844 C 608.3125 516.007812 604.882812 516.898438 601.5 517.933594 C 598.136719 518.960938 594.769531 519.085938 591.371094 518.148438 C 590.765625 517.984375 590.128906 517.949219 589.441406 517.847656 C 589.519531 518.304688 589.472656 518.636719 589.617188 518.804688 C 593.085938 522.796875 596.6875 526.601562 601.558594 528.980469 C 606.492188 531.390625 611.386719 531.777344 616.359375 529.25 C 619.792969 527.507812 623.335938 526.167969 627.183594 525.65625 C 629.542969 525.34375 631.332031 524.03125 632.566406 522.011719 C 633.59375 520.324219 634.523438 518.574219 635.570312 516.898438 C 636.25 515.808594 637.066406 514.804688 637.820312 513.761719 C 637.820312 513.71875 637.816406 513.679688 637.816406 513.636719 C 637.816406 513.679688 637.820312 513.71875 637.820312 513.761719 C 637.820312 513.761719 637.988281 513.902344 637.988281 513.902344 C 638.035156 513.878906 638.082031 513.855469 638.125 513.828125 C 638.082031 513.855469 638.035156 513.878906 637.988281 513.902344 C 637.867188 516.378906 636.257812 518.269531 635.398438 520.453125 C 634.175781 523.5625 632.664062 526.46875 629.34375 527.886719 C 629.226562 527.9375 629.132812 528.046875 629.039062 528.136719 C 627.40625 529.675781 625.875 531.335938 624.128906 532.730469 C 622.304688 534.183594 620.277344 535.382812 618.351562 536.6875 C 618.457031 536.890625 618.484375 537.074219 618.578125 537.117188 C 619.035156 537.324219 619.492188 537.605469 619.972656 537.664062 C 625.035156 538.285156 629.660156 537.082031 633.820312 534.152344 C 636.945312 531.953125 639.980469 529.617188 643.125 527.445312 C 646.507812 525.113281 648.21875 521.824219 648.863281 517.898438 C 649.226562 515.6875 649.53125 513.460938 649.71875 511.230469 C 649.964844 508.296875 650.734375 505.523438 651.949219 502.867188 C 653.101562 500.347656 654.222656 497.8125 655.519531 495.367188 C 657.445312 491.730469 658.042969 487.921875 657.449219 483.875 C 657.238281 482.441406 656.996094 480.996094 656.996094 479.550781 C 656.96875 467.542969 656.996094 455.539062 657.011719 443.53125 C 657.011719 443.015625 657.023438 442.472656 657.933594 442.472656 C 659.523438 444.367188 660.6875 446.78125 663.226562 448.828125 C 662.464844 445.484375 661.820312 442.703125 661.191406 439.917969 C 659.363281 431.820312 657.417969 423.746094 655.765625 415.609375 C 654.847656 411.09375 654.265625 406.484375 654.722656 401.84375 C 655.230469 396.722656 655.894531 391.621094 657.152344 386.621094 C 658.46875 381.382812 659.613281 376.085938 662.089844 371.21875 C 662.140625 371.117188 661.871094 370.855469 661.640625 370.488281 C 660.585938 371.269531 659.5 371.992188 658.503906 372.828125 C 657.550781 373.632812 656.6875 374.546875 655.339844 375.84375 C 656.058594 371.160156 656.53125 367.109375 657.328125 363.125 C 658.882812 355.339844 661.644531 347.921875 664.636719 340.589844 Z M 417.40625 148.820312 C 418.765625 148.394531 420.25 148.1875 421.671875 148.207031 C 424.957031 148.246094 428.242188 148.488281 431.523438 148.652344 C 431.785156 148.664062 432.046875 148.703125 432.308594 148.742188 C 436.0625 149.273438 439.1875 151.738281 437.972656 156.855469 C 437.824219 157.484375 437.683594 158.113281 437.441406 159.160156 C 435.425781 158.703125 433.824219 158.359375 432.074219 158.925781 C 429.742188 159.683594 428.171875 161.046875 427.40625 163.328125 C 426.949219 164.679688 426.617188 166.078125 426.136719 167.78125 C 425.703125 167.25 425.324219 166.933594 425.140625 166.523438 C 424.816406 165.808594 424.640625 165.027344 424.347656 164.296875 C 422.558594 159.824219 419.21875 158.042969 414.324219 158.917969 C 413.957031 158.984375 413.566406 158.925781 413.21875 158.925781 C 411.300781 154.410156 413.019531 150.199219 417.410156 148.820312 Z M 386.3125 103.917969 C 385.863281 102.285156 385.210938 100.710938 384.648438 99.109375 C 386.570312 98.953125 387.628906 99.125 391.171875 100.644531 C 395.539062 102.515625 399.777344 104.667969 402.96875 108.3125 C 405.695312 111.421875 407.121094 115.242188 408.921875 119.78125 C 403.132812 118.683594 398.269531 117.785156 393.730469 115.609375 C 392.265625 114.902344 391.152344 113.863281 390.3125 112.457031 C 388.691406 109.742188 387.15625 107.003906 386.3125 103.917969 Z M 459.574219 155.421875 C 456.230469 164.996094 452.800781 174.542969 449.507812 184.132812 C 447.613281 189.644531 444.929688 194.773438 442.3125 199.941406 C 442.082031 200.394531 441.710938 200.777344 441.398438 201.203125 C 440.386719 200.84375 440.863281 200.078125 440.902344 199.542969 C 441.136719 196.320312 440.683594 193.203125 439.320312 190.289062 C 438.664062 188.882812 437.738281 187.570312 436.765625 186.347656 C 435.738281 185.054688 434.285156 184.449219 432.59375 184.457031 C 428.640625 184.46875 424.6875 184.464844 420.738281 184.453125 C 419.207031 184.445312 417.941406 185.078125 416.75 185.949219 C 413.105469 188.617188 411.332031 192.304688 410.890625 196.710938 C 410.777344 197.84375 410.734375 198.980469 410.660156 200.109375 C 409.605469 200.078125 409.4375 199.355469 409.105469 198.832031 C 405.332031 192.898438 402.707031 186.457031 400.492188 179.804688 C 398.328125 173.308594 396.023438 166.855469 393.679688 160.421875 C 392.738281 157.835938 391.53125 155.347656 390.425781 152.777344 C 391 152.113281 391.347656 152.882812 391.503906 153.136719 C 392.960938 155.484375 394.507812 157.796875 395.730469 160.265625 C 398.703125 166.289062 401.496094 172.402344 404.402344 178.460938 C 405.199219 180.117188 406.050781 181.761719 407.027344 183.316406 C 407.820312 184.574219 408.648438 184.75 410.101562 184.265625 C 410.847656 184.015625 411.582031 183.714844 412.300781 183.390625 C 419.699219 180.03125 427.355469 179.886719 435.113281 181.683594 C 438.035156 182.359375 440.871094 183.398438 443.917969 184.328125 C 445.148438 183.601562 445.585938 182.164062 446.15625 180.875 C 447.648438 177.5 449.039062 174.082031 450.515625 170.703125 C 452.785156 165.511719 455.144531 160.355469 458.136719 155.527344 C 458.585938 154.800781 458.789062 153.824219 459.8125 153.605469 C 459.75 154.21875 459.769531 154.859375 459.574219 155.421875 Z M 459.925781 153.460938 C 459.957031 153.277344 459.988281 153.097656 460.023438 152.917969 L 460.390625 153.234375 C 460.234375 153.308594 460.082031 153.386719 459.925781 153.460938 Z M 460.644531 112.71875 C 459.621094 114.367188 458.203125 115.460938 456.449219 116.175781 C 453.386719 117.421875 450.199219 118.234375 446.941406 118.773438 C 445.515625 119.007812 444.082031 119.226562 442.648438 119.414062 C 442.4375 119.441406 442.195312 119.234375 441.804688 119.070312 C 443.996094 113.769531 446.976562 108.992188 451.21875 105.117188 C 452.550781 103.90625 454.234375 102.953125 455.917969 102.28125 C 459.089844 101.011719 462.375 100.027344 465.625 98.949219 C 465.828125 98.882812 466.109375 99.046875 466.574219 99.148438 C 464.976562 103.863281 463.273438 108.480469 460.644531 112.71875 Z M 638.269531 512.421875 C 638.269531 512.421875 638.265625 512.425781 638.265625 512.425781 C 638.265625 512.425781 638.269531 512.421875 638.269531 512.421875 Z M 638.179688 512.496094 Z M 637.820312 513.488281 C 637.820312 513.417969 637.824219 513.351562 637.832031 513.285156 C 637.824219 513.351562 637.820312 513.421875 637.820312 513.488281 Z M 638.105469 512.578125 C 638.097656 512.582031 638.09375 512.589844 638.089844 512.597656 C 638.09375 512.589844 638.097656 512.582031 638.105469 512.578125 Z M 638.039062 512.664062 C 638.03125 512.671875 638.027344 512.679688 638.019531 512.691406 C 638.027344 512.679688 638.03125 512.671875 638.039062 512.664062 Z M 637.980469 512.753906 C 637.976562 512.765625 637.972656 512.777344 637.964844 512.789062 C 637.972656 512.777344 637.976562 512.765625 637.980469 512.753906 Z M 637.9375 512.851562 C 637.929688 512.867188 637.925781 512.878906 637.917969 512.894531 C 637.925781 512.878906 637.929688 512.867188 637.9375 512.851562 Z M 637.898438 512.953125 C 637.894531 512.96875 637.886719 512.988281 637.882812 513.007812 C 637.886719 512.988281 637.890625 512.96875 637.898438 512.953125 Z M 637.867188 513.058594 C 637.863281 513.082031 637.859375 513.101562 637.855469 513.125 C 637.859375 513.101562 637.863281 513.082031 637.867188 513.058594 Z M 637.847656 513.171875 C 637.839844 513.203125 637.835938 513.234375 637.832031 513.269531 C 637.835938 513.234375 637.84375 513.203125 637.847656 513.171875 Z M 638.246094 513.761719 C 638.226562 513.773438 638.203125 513.789062 638.179688 513.804688 C 638.203125 513.789062 638.226562 513.773438 638.246094 513.761719 Z M 638.351562 513.679688 C 638.339844 513.6875 638.328125 513.699219 638.316406 513.707031 C 638.328125 513.699219 638.34375 513.691406 638.351562 513.679688 Z M 638.351562 513.679688 " fill-opacity="1" fill-rule="nonzero"/></g></svg>